<?xml version="1.0" standalone="no"?>
<!DOCTYPE svg PUBLIC "-//W3C//DTD SVG 20010904//EN"
 "http://www.w3.org/TR/2001/REC-SVG-20010904/DTD/svg10.dtd">
<svg version="1.0" xmlns="http://www.w3.org/2000/svg"
 width="1049.000000pt" height="326.000000pt" viewBox="0 0 1049.000000 326.000000"
 preserveAspectRatio="xMidYMid meet">

<g transform="translate(0.000000,326.000000) scale(0.100000,-0.100000)"
fill="#fff" stroke="none">
<path d="M1522 3249 c-206 -20 -404 -77 -597 -174 -166 -83 -293 -174 -421
-300 -288 -283 -467 -666 -492 -1053 -29 -445 93 -836 368 -1182 143 -178 342
-336 563 -444 173 -85 254 -103 296 -69 29 23 36 93 26 247 l-7 117 -42 -7
c-86 -15 -228 -7 -296 16 -115 39 -170 92 -238 229 -47 95 -92 149 -197 236
-45 38 -47 42 -31 58 23 22 106 23 154 0 59 -27 120 -81 177 -157 29 -39 66
-83 81 -97 81 -75 208 -98 331 -61 l68 21 23 74 c13 40 36 90 53 110 l30 36
-38 6 c-159 26 -288 66 -383 118 -71 40 -198 166 -237 237 -90 163 -129 438
-87 619 16 75 76 199 123 258 l29 38 -14 65 c-24 111 -14 249 23 342 14 36 17
38 60 38 24 0 65 -5 91 -11 59 -14 217 -88 279 -130 43 -28 50 -30 82 -20 184
55 535 57 747 5 l62 -15 58 37 c132 84 285 140 368 132 38 -3 40 -5 59 -58 26
-75 34 -254 14 -329 l-15 -55 38 -50 c86 -114 121 -214 127 -366 21 -470 -191
-755 -623 -835 -49 -9 -99 -18 -112 -21 l-23 -5 31 -37 c16 -21 40 -65 52 -97
20 -55 22 -84 27 -368 6 -291 7 -309 25 -323 45 -32 133 -8 321 86 282 143
510 354 673 626 348 579 313 1303 -89 1845 -348 469 -929 725 -1517 668z"/>
<path d="M4638 2450 c-67 -11 -170 -47 -226 -78 -63 -35 -161 -134 -199 -202
-43 -78 -79 -189 -98 -308 -24 -145 -16 -432 15 -546 85 -311 271 -458 617
-486 141 -11 279 2 392 36 120 37 177 67 185 99 9 36 6 769 -3 783 -5 9 -79
12 -287 10 l-279 -3 0 -140 0 -140 110 -5 110 -5 5 -149 c4 -116 2 -153 -8
-163 -13 -13 -99 -18 -207 -13 -149 7 -249 100 -300 280 -29 101 -27 338 3
445 38 132 99 208 207 256 70 30 276 38 385 14 41 -9 89 -19 106 -22 l32 -5
32 132 c36 151 37 147 -47 175 -125 40 -406 58 -545 35z"/>
<path d="M7768 2400 l-23 -6 -5 -284 -5 -285 -239 -3 c-170 -2 -243 1 -253 9
-11 10 -13 61 -13 278 0 146 0 272 0 279 0 10 -37 12 -167 10 l-168 -3 0 -765
0 -765 140 -5 c77 -3 152 -4 167 -2 l28 3 2 327 3 327 252 3 253 2 2 -327 3
-328 168 -3 167 -2 0 769 0 770 -145 3 c-79 2 -155 1 -167 -2z"/>
<path d="M9588 2402 l-148 -3 0 -770 0 -770 122 3 c114 3 123 4 126 23 7 45
10 46 79 10 102 -53 176 -68 312 -64 108 4 121 6 183 37 147 72 211 234 212
537 0 281 -63 422 -224 499 -62 30 -70 31 -190 30 -111 0 -133 -3 -194 -27
-37 -15 -72 -27 -77 -27 -5 0 -9 116 -9 259 l0 259 -22 3 c-13 2 -89 3 -170 1z
m469 -758 c15 -11 39 -42 53 -70 23 -46 25 -59 25 -194 0 -167 -14 -220 -68
-261 -27 -21 -43 -24 -107 -24 -48 1 -94 8 -127 20 l-53 19 0 247 0 247 43 16
c23 8 49 17 57 20 8 3 45 4 82 3 49 -2 75 -8 95 -23z"/>
<path d="M5603 2351 c-24 -11 -55 -38 -72 -62 -25 -34 -31 -52 -31 -95 0 -90
31 -141 105 -175 67 -31 155 -19 208 29 56 50 73 152 37 222 -43 84 -160 122
-247 81z"/>
<path d="M6140 2056 c0 -139 -2 -155 -17 -159 -10 -3 -43 -11 -73 -17 -93 -21
-90 -17 -90 -131 0 -115 -4 -111 103 -113 l72 -1 5 -270 c6 -324 14 -359 95
-440 74 -73 127 -90 290 -90 83 0 144 5 168 13 l38 14 -3 116 -3 117 -57 -3
c-75 -4 -128 11 -161 46 l-27 28 2 235 3 234 118 3 117 3 0 134 0 135 -120 0
-120 0 0 150 0 150 -170 0 -170 0 0 -154z"/>
<path d="M5525 1898 c-3 -7 -4 -242 -3 -523 l3 -510 165 0 165 0 0 520 0 520
-163 3 c-124 2 -164 0 -167 -10z"/>
<path d="M8264 1897 c-3 -8 -4 -196 -2 -418 3 -393 4 -406 26 -460 46 -114
137 -173 290 -188 138 -13 274 10 386 66 51 26 65 22 66 -18 0 -22 19 -25 133
-21 l97 4 -2 521 -3 522 -160 0 -160 0 -3 -374 c-1 -258 -6 -378 -13 -388 -7
-7 -43 -23 -81 -34 -110 -34 -185 -18 -221 46 -8 14 -14 135 -17 385 l-5 365
-163 3 c-131 2 -163 0 -168 -11z"/>
<path d="M602 878 c3 -7 13 -15 22 -16 12 -3 17 1 14 10 -3 7 -13 15 -22 16
-12 3 -17 -1 -14 -10z"/>
<path d="M672 814 c2 -11 11 -20 22 -22 13 -3 17 1 14 14 -2 11 -11 20 -22 22
-13 3 -17 -1 -14 -14z"/>
<path d="M730 735 c0 -17 22 -45 36 -45 25 0 13 44 -13 48 -13 2 -23 1 -23 -3z"/>
<path d="M810 641 c0 -25 14 -41 36 -41 26 0 32 18 12 38 -14 14 -48 16 -48 3z"/>
<path d="M930 561 c0 -23 37 -38 53 -22 7 7 6 15 -3 26 -18 22 -50 19 -50 -4z"/>
<path d="M1197 563 c-17 -17 -6 -34 20 -31 36 4 45 38 10 38 -13 0 -27 -3 -30
-7z"/>
<path d="M1071 551 c-19 -12 -6 -41 17 -41 11 0 25 6 31 14 10 12 8 17 -8 25
-23 13 -22 13 -40 2z"/>
</g>
</svg>
